<?xml version="1.0" encoding="UTF-8"?>
<svg width="96px" height="24px" viewBox="0 0 96 24" version="1.1" xmlns="http://www.w3.org/2000/svg" xmlns:xlink="http://www.w3.org/1999/xlink">
    <title>A017D2C8-00A8-4C9F-A1B5-33565C2E57DD</title>
    <g id="Page-2" stroke="none" stroke-width="1" fill="none" fill-rule="evenodd">
        <g id="03-Shopping-Cart" transform="translate(-1217.000000, -608.000000)" fill="#FFFFFF">
            <g id="Place-Order" transform="translate(1190.000000, 595.000000)">
                <g id="logo_paypay" transform="translate(27.000000, 13.000000)">
                    <path d="M56.4210795,19.1806233 C55.5163807,21.1683331 54.0256966,21.427358 53.3614307,21.5040649 C52.6624978,21.5841069 51.9121234,21.5518677 51.9121234,21.5518677 L51.9121234,19.9265704 C53.2395368,19.9265704 53.9630722,20.0299579 54.7447588,18.4869259 L55.2770661,17.147334 L50.3856539,7.47225661 L53.5090454,7.47225661 L56.7163088,13.9045211 L59.552299,7.4733683 L61.5820002,7.4733683 C61.5820002,7.4733683 57.3257783,17.1929135 56.4210795,19.1806233 M45.010021,16.7882567 C43.7161563,16.7882567 42.7879734,15.8388696 42.7879734,14.4381345 C42.7879734,13.0373994 44.02816,12.2102987 45.1609905,12.2102987 C45.7302015,12.2102987 46.27481,12.3681593 46.485049,12.5471421 L46.485049,16.1390271 C46.1204856,16.4536367 45.6955344,16.7882567 45.010021,16.7882567 M44.8847722,7.4733683 C42.6280576,7.4733683 41.4706246,8.02365709 41.4706246,8.02365709 L41.7468429,8.8552046 C41.7468429,8.8552046 42.5956271,8.46388812 44.2596466,8.46388812 C46.1081844,8.46388812 46.485049,9.35657883 46.485049,10.574996 L46.4615649,11.1186146 C46.064571,11.0029984 45.1386246,10.8506963 44.1903124,10.8506963 C42.7812637,10.8506963 40.4529783,11.7144829 40.4529783,14.5348519 C40.4529783,17.2218176 42.5039271,18.0967212 43.9588259,18.0967212 C45.1609905,18.0967212 45.8912356,17.7287503 46.485049,17.3630028 L46.485049,17.9132916 L49.4608259,17.9132916 L49.4608259,10.574996 C49.4608259,8.25377786 47.1392502,7.4733683 44.8847722,7.4733683 M32.3610124,11.7478337 L32.3610124,5.39449955 C32.3610124,5.39449955 33.2813673,5.39783463 34.3113149,5.39783463 C35.7729234,5.39783463 37.3866198,6.5006356 37.3866198,8.39051628 C37.3866198,10.280397 35.7729234,11.7500571 34.3113149,11.7500571 C32.894438,11.7500571 32.3610124,11.7478337 32.3610124,11.7478337 M34.3113149,3.96930717 L32.3610124,3.96930717 L30.0808137,3.96930717 C29.6950027,3.96930717 29.3818807,4.28169333 29.3818807,4.66411624 L29.3818807,17.9132916 L32.3610124,17.9132916 L32.3610124,13.1730261 C32.3610124,13.1730261 33.2310441,13.1752495 34.3113149,13.1752495 C37.19651,13.1752495 39.80996,11.386533 39.80996,8.35605375 C39.80996,5.32557448 37.19651,3.96930717 34.3113149,3.96930717 M90.4943393,19.1806233 C89.5885222,21.1683331 88.0989563,21.427358 87.4335722,21.5040649 C86.733521,21.5841069 85.9853832,21.5518677 85.9853832,21.5518677 L85.9853832,19.9265704 C87.3127966,19.9265704 88.0352137,20.0299579 88.8180185,18.4869259 L89.3480893,17.147334 L84.4577954,7.47225661 L87.5823051,7.47225661 L90.7884502,13.9045211 L93.6255588,7.4733683 L95.65526,7.4733683 C95.65526,7.4733683 91.3979198,17.1929135 90.4943393,19.1806233 M79.0832807,16.7882567 C77.7882978,16.7882567 76.8601149,15.8388696 76.8601149,14.4381345 C76.8601149,13.0373994 78.102538,12.2102987 79.233132,12.2102987 C79.8045795,12.2102987 80.3480698,12.3681593 80.5583088,12.5471421 L80.5583088,16.1390271 C80.1937454,16.4536367 79.7676759,16.7882567 79.0832807,16.7882567 M78.9557954,7.4733683 C76.7013173,7.4733683 75.5438844,8.02365709 75.5438844,8.02365709 L75.8201027,8.8552046 C75.8201027,8.8552046 76.6688868,8.46388812 78.3329063,8.46388812 C80.1814441,8.46388812 80.5583088,9.35657883 80.5583088,10.574996 L80.5337063,11.1186146 C80.1378307,11.0029984 79.2118844,10.8506963 78.2635722,10.8506963 C76.8534051,10.8506963 74.5251198,11.7144829 74.5251198,14.5348519 C74.5251198,17.2218176 76.5760685,18.0967212 78.0320856,18.0967212 C79.233132,18.0967212 79.9656137,17.7287503 80.5583088,17.3630028 L80.5583088,17.9132916 L83.5340856,17.9132916 L83.5340856,10.574996 C83.5340856,8.25377786 81.21251,7.4733683 78.9557954,7.4733683 M66.4342722,11.7478337 L66.4342722,5.39449955 C66.4342722,5.39449955 67.3535088,5.39783463 68.3845746,5.39783463 C69.8461832,5.39783463 71.4587612,6.5006356 71.4587612,8.39051628 C71.4587612,10.280397 69.8461832,11.7500571 68.3845746,11.7500571 C66.9676978,11.7500571 66.4342722,11.7478337 66.4342722,11.7478337 M68.3845746,3.96930717 L66.4342722,3.96930717 L64.1529551,3.96930717 C63.7671441,3.96930717 63.4551405,4.28169333 63.4551405,4.66411624 L63.4551405,17.9132916 L66.4342722,17.9132916 L66.4342722,13.1730261 C66.4342722,13.1730261 67.3020673,13.1752495 68.3845746,13.1752495 C71.2686515,13.1752495 73.8821015,11.386533 73.8821015,8.35605375 C73.8821015,5.32557448 71.2686515,3.96930717 68.3845746,3.96930717" id="Fill-1"></path>
                    <path d="M20.3925114,0.198161096 L3.60353323,0.198161096 C1.72791924,0.198161096 0.18723631,1.6695868 0.0878734252,3.50389042 C14.143814,3.11003512 20.9808736,7.95688925 19.9079778,12.7882547 C18.9411434,17.1383644 14.480978,18.8056114 7.23418604,19.3532473 L6.15012581,23.8217348 L20.3925114,23.8217348 C22.3306459,23.8217348 23.9171027,22.2496326 23.9171027,20.3279285 L23.9171027,3.69086105 C23.9171027,1.77026329 22.3306459,0.198161096 20.3925114,0.198161096 L20.3925114,0.198161096 Z M19.0594857,12.8092751 C19.6177042,10.5523514 15.9468596,8.46580341 10.0665865,7.6780928 L7.93307555,16.4756696 C12.8599116,16.7068937 18.4577262,15.2376806 19.0594857,12.8092751 L19.0594857,12.8092751 Z M4.72108657,23.8217348 L3.60353323,23.8217348 C1.66428233,23.8217348 0.07894193,22.2496326 0.07894193,20.3279285 L0.07894193,7.59069233 C3.24180768,7.27428049 6.19143398,7.27981216 8.77933472,7.5298439 L4.72108657,23.8217348 Z" id="Fill-4"></path>
                </g>
            </g>
        </g>
    </g>
</svg>